<?xml version="1.0" encoding="utf-8"?>
<!-- Generator: Adobe Illustrator 16.0.4, SVG Export Plug-In . SVG Version: 6.00 Build 0)  -->
<!DOCTYPE svg PUBLIC "-//W3C//DTD SVG 1.1//EN" "http://www.w3.org/Graphics/SVG/1.1/DTD/svg11.dtd">
<svg version="1.1" id="Layer_1" xmlns="http://www.w3.org/2000/svg" xmlns:xlink="http://www.w3.org/1999/xlink" x="0px" y="0px"
	 width="128px" height="128px" viewBox="0 0 128 128" enable-background="new 0 0 128 128" xml:space="preserve">
<polygon fill="#ABF456" points="64,123.334 40.78,97.791 56.258,97.791 71.74,97.791 87.221,97.791 "/>
<polygon fill="#ABF456" points="79.783,36.667 79.48,36.667 64,56.018 48.519,36.667 33.039,36.667 33.039,89.303 33.039,89.303 
	48.519,89.303 48.519,89.082 48.72,89.303 48.519,88.639 48.519,59.116 64,78.465 79.479,59.116 79.479,89.303 94.961,89.303 
	94.961,36.667 "/>
<polygon fill="#ABF456" points="64,2.333 40.779,27.876 56.26,27.876 56.424,27.876 63.999,19.543 71.574,27.876 71.742,27.876 
	87.221,27.876 "/>
</svg>
